<?xml version="1.0" encoding="UTF-8"?> <svg xmlns="http://www.w3.org/2000/svg" id="Group_1_copy_4" data-name="Group 1 copy 4" viewBox="0 0 73.37 25.37"><defs><style>.cls-1{fill:#41859c;}.cls-1,.cls-2,.cls-3{fill-rule:evenodd;}.cls-2{fill:#95dade;}.cls-3{fill:#fff;}.cls-4{fill:#004359;}</style></defs><g id="Ellipse_1_copy" data-name="Ellipse 1 copy"><path class="cls-1" d="M17.28,25.75c4.42-.54,9.81-3.21,14.7-3a19.6,19.6,0,0,1,3.38.44,12.34,12.34,0,1,0-21.1,2.56A13.27,13.27,0,0,0,17.28,25.75Z" transform="translate(-11.71 -5.88)"></path></g><g id="Shape_1_copy_12" data-name="Shape 1 copy 12"><path class="cls-1" d="M34.67,25.24l-.72.13c-6,1.14-10.21,4.55-14.77,4.83a7.37,7.37,0,0,0,4.84,1c3.65-.54,6.79-3.12,11.53-4.38a16.67,16.67,0,0,1,7.15-.17A18.8,18.8,0,0,0,34.67,25.24Z" transform="translate(-11.71 -5.88)"></path></g><g id="Shape_1_copy_13" data-name="Shape 1 copy 13"><path class="cls-2" d="M30.33,23.48c-3.92.18-8.34,2.3-11.86,2.95a12.49,12.49,0,0,1-5.75-.27s2.76,3.67,7.17,3.1c3.66-.48,6.86-3,11.62-4.21a16.51,16.51,0,0,1,7.16,0A18.71,18.71,0,0,0,30.33,23.48Z" transform="translate(-11.71 -5.88)"></path></g><g id="isi"><path class="cls-3" d="M18.6,13.24H17.4v8.63h2.35V14.34a1.08,1.08,0,0,0-.34-.78A1.13,1.13,0,0,0,18.6,13.24Zm8.71,4.22a5.8,5.8,0,0,0-2.3-1,.93.93,0,0,1-.27,0l-.34-.09q-1.68-.36-1.68-.87a.64.64,0,0,1,.29-.57,1.92,1.92,0,0,1,1-.2,1.79,1.79,0,0,1,1.07.29l.26.26a1,1,0,0,0,.94.54h1.39a2.84,2.84,0,0,0-1-2.08A4.43,4.43,0,0,0,24,13a4,4,0,0,0-2.52.73,2.54,2.54,0,0,0-.94,2,2,2,0,0,0,.65,1.54,5.15,5.15,0,0,0,2.29,1,5.3,5.3,0,0,0,.88.19q1.35.29,1.35.87a.67.67,0,0,1-.38.6,2.15,2.15,0,0,1-1,.23A2.32,2.32,0,0,1,23,19.86a1.23,1.23,0,0,1-.49-1h-2.2V19a2.59,2.59,0,0,0,.94,2.15,4.3,4.3,0,0,0,2.75.73,5,5,0,0,0,2.91-.7,2.55,2.55,0,0,0,1-2.18A2,2,0,0,0,27.31,17.46Zm3.13-4a1.07,1.07,0,0,0-.79-.33h-1.2v8.72h2.33V14.25A1,1,0,0,0,30.44,13.48Z" transform="translate(-11.71 -5.88)"></path></g><g id="Insurance"><path class="cls-1" d="M39.47,19.51h1.4V12h-1.4Zm5.85-2.27-2-5.29H41.91v7.56h1.32l0-5.3,2,5.3h1.44V12H45.28Zm5.26-2-.77-.53h0q-.87-.57-.87-1.05a.74.74,0,0,1,.2-.55.67.67,0,0,1,.53-.2.78.78,0,0,1,.66.26,1.45,1.45,0,0,1,.2.88v.2h1.34v-.1a.76.76,0,0,0,0-.17,2.26,2.26,0,0,0-.56-1.64,2.13,2.13,0,0,0-1.61-.58,2.18,2.18,0,0,0-1.56.54,2,2,0,0,0-.56,1.49,2,2,0,0,0,.25,1.06A4.21,4.21,0,0,0,49,15.93l.72.51a3.32,3.32,0,0,1,.7.63,1.09,1.09,0,0,1,.16.58.91.91,0,0,1-.23.67.94.94,0,0,1-.68.22.66.66,0,0,1-.6-.25,1.75,1.75,0,0,1-.18-.95v-.48H47.5v0c0,.19,0,.33,0,.42A2.52,2.52,0,0,0,48,19.1a2.22,2.22,0,0,0,1.7.59,2.31,2.31,0,0,0,1.68-.56A2.09,2.09,0,0,0,52,17.54a2.35,2.35,0,0,0-.3-1.24A3.47,3.47,0,0,0,50.58,15.26ZM56.22,17a2.36,2.36,0,0,1-.21,1.2,1.06,1.06,0,0,1-1.5,0,2.28,2.28,0,0,1-.22-1.18V12h-1.4v5.22a2.81,2.81,0,0,0,.53,2,2.41,2.41,0,0,0,1.83.56,3.24,3.24,0,0,0,1.18-.2,1.82,1.82,0,0,0,.81-.59,1.67,1.67,0,0,0,.28-.62,5,5,0,0,0,.09-1.11V12H56.22ZM65.32,12l-1.68,7.49a1.07,1.07,0,0,1-.22-.37,2.41,2.41,0,0,1-.1-.69l0-1v-.1c0-1-.38-1.51-1.05-1.69a1.07,1.07,0,0,0,.8-.5,2.24,2.24,0,0,0,.26-1.16,2,2,0,0,0-.5-1.51A2.36,2.36,0,0,0,61.15,12H58.63v7.56H60V16.19h.48a1.75,1.75,0,0,1,1.13.25,1.14,1.14,0,0,1,.28.9v.2l0,.79c0,.32,0,.56,0,.73a2.55,2.55,0,0,0,.09.45h3l.36-1.9H67l.37,1.9h1.52L67.2,12Zm-3.67,3a1.2,1.2,0,0,1-.85.25H60V13h.69a1.51,1.51,0,0,1,1,.22,1,1,0,0,1,.25.79A1.31,1.31,0,0,1,61.65,14.9Zm4,1.58.59-3.17.6,3.17Zm7.18.76-2-5.29H69.41v7.56h1.32l0-5.3,2,5.3h1.44V12H72.78Zm6.69-.42H78.14v.1A2.91,2.91,0,0,1,78,18.2a.77.77,0,0,1-1.34-.1,9.48,9.48,0,0,1-.18-2.49,8,8,0,0,1,.19-2.3.68.68,0,0,1,.69-.42.67.67,0,0,1,.6.3,1.71,1.71,0,0,1,.2.91v.19h1.36A3,3,0,0,0,79,12.36a2.11,2.11,0,0,0-1.67-.6,2.56,2.56,0,0,0-1.15.23,1.85,1.85,0,0,0-.76.76,3.14,3.14,0,0,0-.29,1A15,15,0,0,0,75,15.63a11.93,11.93,0,0,0,.16,2.4,2.12,2.12,0,0,0,.54,1.08,1.61,1.61,0,0,0,.66.43,2.6,2.6,0,0,0,.93.14A2.13,2.13,0,0,0,79,19.05a2.91,2.91,0,0,0,.55-1.95V17A.66.66,0,0,1,79.51,16.82Zm2.28,1.41V16.15H84.1V15H81.79V13.2h2.48V12H80.39v7.56h3.93V18.23Z" transform="translate(-11.71 -5.88)"></path></g><path class="cls-4" d="M40.12,23.24a.79.79,0,0,1-.4-.09.62.62,0,0,1-.25-.28,1,1,0,0,1-.09-.45l.42-.08a1.1,1.1,0,0,0,0,.27.48.48,0,0,0,.09.19.26.26,0,0,0,.18.06.19.19,0,0,0,.17-.07.35.35,0,0,0,0-.18.52.52,0,0,0-.08-.29,1.56,1.56,0,0,0-.22-.23l-.34-.3a1.18,1.18,0,0,1-.23-.27.86.86,0,0,1-.08-.38.63.63,0,0,1,.19-.49.69.69,0,0,1,.51-.17.91.91,0,0,1,.31.05.48.48,0,0,1,.2.17.84.84,0,0,1,.12.23,1.26,1.26,0,0,1,0,.28l-.42.07a.73.73,0,0,0,0-.22.34.34,0,0,0-.07-.16.21.21,0,0,0-.16-.06.22.22,0,0,0-.17.07.28.28,0,0,0-.06.18.41.41,0,0,0,.06.23.65.65,0,0,0,.16.18l.34.3a1.43,1.43,0,0,1,.28.32.85.85,0,0,1,.12.46.64.64,0,0,1-.09.34.59.59,0,0,1-.23.24A.8.8,0,0,1,40.12,23.24Z" transform="translate(-11.71 -5.88)"></path><path class="cls-4" d="M41.83,23.24a.8.8,0,0,1-.47-.11.53.53,0,0,1-.23-.31,1.77,1.77,0,0,1-.06-.49V20.51h.48v1.88a1,1,0,0,0,0,.24.36.36,0,0,0,.07.18.27.27,0,0,0,.19.07.26.26,0,0,0,.19-.07.36.36,0,0,0,.07-.18,1,1,0,0,0,0-.24V20.51h.48v1.82a1.77,1.77,0,0,1-.06.49.57.57,0,0,1-.23.31A.8.8,0,0,1,41.83,23.24Z" transform="translate(-11.71 -5.88)"></path><path class="cls-4" d="M43,23.21v-2.7h.79a.75.75,0,0,1,.39.09.53.53,0,0,1,.23.26,1.21,1.21,0,0,1,.07.41.89.89,0,0,1-.09.43.55.55,0,0,1-.25.23.92.92,0,0,1-.38.08h-.27v1.2Zm.49-1.55h.19a.4.4,0,0,0,.2,0A.22.22,0,0,0,44,21.5a.71.71,0,0,0,0-.23A.78.78,0,0,0,44,21a.18.18,0,0,0-.09-.13.42.42,0,0,0-.22,0h-.19Z" transform="translate(-11.71 -5.88)"></path><path class="cls-4" d="M44.72,23.21v-2.7h1.13v.34h-.64v.78h.51V22h-.51v.9h.65v.34Z" transform="translate(-11.71 -5.88)"></path><path class="cls-4" d="M46.15,23.21v-2.7h.64a1.51,1.51,0,0,1,.46.06.51.51,0,0,1,.29.22.78.78,0,0,1,.1.43,1.23,1.23,0,0,1,0,.29.5.5,0,0,1-.1.22.5.5,0,0,1-.2.15l.38,1.33h-.5L46.87,22h-.23v1.24Zm.49-1.55h.15a.5.5,0,0,0,.23,0,.21.21,0,0,0,.12-.14.5.5,0,0,0,0-.23.52.52,0,0,0-.08-.31.35.35,0,0,0-.28-.1h-.18Z" transform="translate(-11.71 -5.88)"></path><path class="cls-4" d="M48,23.21l.05-2.7h.51L49,22.38l.4-1.87h.49l0,2.7h-.36l0-1.88-.39,1.88h-.29l-.39-1.89,0,1.89Z" transform="translate(-11.71 -5.88)"></path><path class="cls-4" d="M50.16,23.21l.54-2.7h.52l.54,2.7h-.45l-.11-.63h-.47l-.11.63Zm.62-.94h.37L51,21.14Z" transform="translate(-11.71 -5.88)"></path><path class="cls-4" d="M52,23.21v-2.7h.65a1.56,1.56,0,0,1,.46.06.52.52,0,0,1,.28.22.78.78,0,0,1,.1.43,1.23,1.23,0,0,1,0,.29.5.5,0,0,1-.1.22.44.44,0,0,1-.2.15l.38,1.33h-.49L52.74,22h-.23v1.24Zm.49-1.55h.16a.46.46,0,0,0,.22,0,.26.26,0,0,0,.13-.14.71.71,0,0,0,0-.23.53.53,0,0,0-.07-.31.37.37,0,0,0-.29-.1h-.18Z" transform="translate(-11.71 -5.88)"></path><path class="cls-4" d="M53.88,23.21v-2.7h.5v1.18l.53-1.18h.47l-.52,1.2.57,1.5h-.49L54.49,22l-.11.2v1Z" transform="translate(-11.71 -5.88)"></path><path class="cls-4" d="M55.63,23.21v-2.7h1.13v.34h-.64v.78h.5V22h-.5v.9h.65v.34Z" transform="translate(-11.71 -5.88)"></path><path class="cls-4" d="M57.32,23.21V20.87h-.43v-.36h1.35v.36h-.42v2.34Z" transform="translate(-11.71 -5.88)"></path><path class="cls-4" d="M59.31,23.21v-2.7h.49v2.7Z" transform="translate(-11.71 -5.88)"></path><path class="cls-4" d="M60.21,23.21v-2.7h.35l.65,1.54V20.51h.41v2.7h-.33l-.66-1.62v1.62Z" transform="translate(-11.71 -5.88)"></path><path class="cls-4" d="M62.3,23.21V20.87h-.43v-.36h1.35v.36h-.43v2.34Z" transform="translate(-11.71 -5.88)"></path><path class="cls-4" d="M63.46,23.21v-2.7H64.6v.34H64v.78h.5V22H64v.9h.64v.34Z" transform="translate(-11.71 -5.88)"></path><path class="cls-4" d="M64.89,23.21v-2.7h.65a1.56,1.56,0,0,1,.46.06.52.52,0,0,1,.28.22.78.78,0,0,1,.1.43,1.23,1.23,0,0,1,0,.29.5.5,0,0,1-.1.22.44.44,0,0,1-.2.15l.38,1.33h-.49L65.61,22h-.23v1.24Zm.49-1.55h.16a.46.46,0,0,0,.22,0,.26.26,0,0,0,.13-.14.71.71,0,0,0,0-.23.53.53,0,0,0-.07-.31.37.37,0,0,0-.29-.1h-.18Z" transform="translate(-11.71 -5.88)"></path><path class="cls-4" d="M66.75,23.21v-2.7h.35l.65,1.54V20.51h.41v2.7h-.33l-.66-1.62v1.62Z" transform="translate(-11.71 -5.88)"></path><path class="cls-4" d="M68.43,23.21l.54-2.7h.53l.54,2.7h-.46l-.1-.63H69l-.11.63Zm.63-.94h.36l-.18-1.13Z" transform="translate(-11.71 -5.88)"></path><path class="cls-4" d="M70.45,23.21V20.87H70v-.36h1.35v.36H71v2.34Z" transform="translate(-11.71 -5.88)"></path><path class="cls-4" d="M71.63,23.21v-2.7h.49v2.7Z" transform="translate(-11.71 -5.88)"></path><path class="cls-4" d="M73.27,23.24a.87.87,0,0,1-.46-.1.62.62,0,0,1-.24-.31,1.32,1.32,0,0,1-.08-.47v-1a1.28,1.28,0,0,1,.08-.47.6.6,0,0,1,.24-.3,1.11,1.11,0,0,1,.92,0,.6.6,0,0,1,.24.3,1.28,1.28,0,0,1,.08.47v1a1.32,1.32,0,0,1-.08.47.6.6,0,0,1-.24.3A.78.78,0,0,1,73.27,23.24Zm0-.36a.3.3,0,0,0,.18-.05.36.36,0,0,0,.08-.15,1.23,1.23,0,0,0,0-.2V21.23a1.23,1.23,0,0,0,0-.2.27.27,0,0,0-.08-.14.35.35,0,0,0-.36,0A.22.22,0,0,0,73,21a1.23,1.23,0,0,0,0,.2v1.25a1.23,1.23,0,0,0,0,.2.28.28,0,0,0,.08.15A.3.3,0,0,0,73.27,22.88Z" transform="translate(-11.71 -5.88)"></path><path class="cls-4" d="M74.41,23.21v-2.7h.34l.66,1.54V20.51h.41v2.7h-.33l-.66-1.62v1.62Z" transform="translate(-11.71 -5.88)"></path><path class="cls-4" d="M76.09,23.21l.54-2.7h.53l.54,2.7h-.46l-.11-.63h-.47l-.11.63Zm.62-.94h.37l-.18-1.13Z" transform="translate(-11.71 -5.88)"></path><path class="cls-4" d="M78,23.21v-2.7h.5v2.36h.65v.34Z" transform="translate(-11.71 -5.88)"></path><path class="cls-4" d="M80.17,23.21v-2.7h.48v2.7Z" transform="translate(-11.71 -5.88)"></path><path class="cls-4" d="M81.07,23.21v-2.7h.34l.66,1.54V20.51h.41v2.7h-.33l-.66-1.62v1.62Z" transform="translate(-11.71 -5.88)"></path><path class="cls-4" d="M83.61,23.24a.87.87,0,0,1-.46-.11.7.7,0,0,1-.24-.32,1.68,1.68,0,0,1-.06-.47v-1a1.75,1.75,0,0,1,.06-.48.58.58,0,0,1,.24-.31.78.78,0,0,1,.46-.11.88.88,0,0,1,.44.09.55.55,0,0,1,.23.27,1.31,1.31,0,0,1,.06.41v.23h-.47v-.23a1.34,1.34,0,0,0,0-.21.34.34,0,0,0-.06-.15.24.24,0,0,0-.18-.05.31.31,0,0,0-.19.05.29.29,0,0,0-.07.16,1.5,1.5,0,0,0,0,.22v1.18a1.66,1.66,0,0,0,0,.24.25.25,0,0,0,.26.19.21.21,0,0,0,.17-.06.26.26,0,0,0,.07-.15,1.55,1.55,0,0,0,0-.22v-.24h.47v.21a1.44,1.44,0,0,1-.06.43.58.58,0,0,1-.22.29A.83.83,0,0,1,83.61,23.24Z" transform="translate(-11.71 -5.88)"></path><path class="cls-4" d="M84.64,23.21v-.46h.44v.46Z" transform="translate(-11.71 -5.88)"></path></svg> 